<svg width="121" height="25" viewBox="0 0 121 25" fill="none" xmlns="http://www.w3.org/2000/svg">
<path d="M14.1935 0.155874C5.93956 0.155874 0 4.6814 0 14.8403V24.127H105.908C109.475 24.127 112.627 23.2785 115.036 21.4754C118.201 19.1419 120.102 15.1938 120.102 9.44264V0.144089H14.1817V0.155874H14.1935Z" fill="#0099A8"/>
<path d="M44.0803 16.4313C44.0803 17.0441 44.163 17.3152 44.4109 17.5745C44.6353 17.8102 44.9541 17.928 45.3202 17.928C46.0287 17.928 46.4892 17.3387 46.4892 16.4195V12.389C46.4892 8.84159 44.1748 6.72025 40.2781 6.72025C36.7238 6.72025 34.1259 9.0773 34.1259 12.3182C34.1259 15.5356 36.6529 17.9752 40.0065 17.9752C41.9666 17.9752 43.3128 17.1266 44.0213 16.3841L44.0803 16.4313ZM40.2544 15.736C38.0345 15.736 36.4876 14.3453 36.4876 12.389V12.3418C36.4876 10.3619 38.0345 8.98302 40.2544 8.98302C42.7578 8.98302 44.1984 10.1969 44.1984 12.3182C44.1984 14.3571 42.5689 15.736 40.2544 15.736ZM57.5772 15.4413C56.7978 15.4413 56.3019 15.8538 56.3019 16.5138C56.3019 17.0913 56.7034 17.5155 57.3528 17.657C58.5218 17.8809 60.0215 17.8927 61.4503 17.8927C63.0562 17.8927 64.2961 17.5627 65.1345 16.8909C65.9492 16.2309 66.2326 15.3942 66.2326 14.4985C66.2326 12.6011 64.8038 11.6701 61.285 11.2222C59.1359 10.9512 58.6635 10.7272 58.6635 10.0083C58.6635 9.50157 58.9587 9.03016 61.1197 9.03016C62.3477 9.03016 63.3396 9.11265 64.2016 9.11265C64.981 9.11265 65.4887 8.68839 65.4887 8.02841C65.4887 7.34487 64.9337 6.94417 63.8828 6.86167H63.8592C63.1153 6.81453 60.9425 6.76739 60.7064 6.77918C57.9314 6.77918 56.3373 7.96949 56.3373 10.0555C56.3373 12.0825 57.648 13.0843 60.7418 13.3907C62.4776 13.5675 63.9182 13.756 63.9182 14.5339C63.9182 15.2999 63.0562 15.6417 61.1197 15.6417C59.5964 15.6535 58.2502 15.4413 57.5772 15.4413ZM86.8145 9.05373C88.8927 9.05373 89.8846 9.97298 89.8846 11.8468V16.4666C89.8846 17.3859 90.3688 17.9634 91.1127 17.9634C91.7149 17.9634 92.3289 17.492 92.3289 16.4549V11.5168C92.3289 8.65303 90.168 6.79096 86.8263 6.79096C83.4491 6.79096 81.2528 8.64125 81.2528 11.5168V16.4902C81.2528 17.4095 81.7369 17.9869 82.4808 17.9869C83.0831 17.9869 83.6971 17.5155 83.6971 16.4784V11.8704C83.6853 9.99655 84.7362 9.05373 86.8145 9.05373ZM49.5594 5.05853C48.8154 5.05853 48.3313 5.64779 48.3313 6.55526V14.4042C48.3313 16.6906 49.6893 17.9044 52.2635 17.9044C52.7712 17.9044 53.2317 17.8573 53.6096 17.763C54.448 17.5862 54.8849 17.2091 54.8849 16.6081C54.8849 16.0188 54.5306 15.4885 53.5624 15.5356C53.4561 15.5356 52.5823 15.6181 52.2989 15.6181C51 15.6181 50.7402 14.9463 50.7402 13.9328V9.44264H53.2672C54.2236 9.44264 54.7196 9.05373 54.7196 8.34661C54.7196 7.66307 54.1764 7.26237 53.2672 7.26237H50.7402V6.55526C50.7284 5.63601 50.2679 5.05853 49.5594 5.05853ZM73.5302 6.74382C69.9759 6.74382 67.378 9.10087 67.378 12.3418C67.378 15.5945 69.9641 17.9516 73.5302 17.9516C77.0963 17.9516 79.6823 15.5945 79.6823 12.3418C79.6587 9.10087 77.0844 6.74382 73.5302 6.74382ZM73.5302 15.7242C71.2984 15.7242 69.7279 14.3335 69.7279 12.3536C69.7279 10.3737 71.2866 8.9948 73.5302 8.9948C75.7619 8.9948 77.3324 10.3855 77.3324 12.3536C77.3206 14.3335 75.7501 15.7242 73.5302 15.7242ZM24.266 12.1768L25.8365 16.2309C26.2498 17.2916 27.2417 17.9752 28.3399 17.9752C29.4971 17.9752 30.5008 17.268 30.8432 16.1602L33.2876 8.28769C33.4883 7.6395 33.1222 6.96774 32.4846 6.76739C31.8706 6.57883 31.1739 6.90882 30.9613 7.56879L28.5406 15.347C28.5052 15.4649 28.4225 15.5474 28.3281 15.5474C28.2336 15.5474 28.151 15.4767 28.1037 15.347L26.0727 10.1262C25.7657 9.33657 25.376 8.34661 24.2542 8.34661C23.1324 8.34661 22.7428 9.33657 22.4357 10.1262L20.4047 15.347C20.3575 15.4649 20.2866 15.5474 20.1804 15.5474C20.0859 15.5474 20.0032 15.4767 19.9678 15.347L17.5471 7.56879C17.3464 6.93239 16.6851 6.56704 16.0239 6.76739C15.3744 6.96774 15.0202 7.65128 15.2209 8.28769L17.6652 16.1602C18.0076 17.268 19.0114 17.9752 20.1686 17.9752C21.2785 17.9752 22.2586 17.2798 22.6719 16.2309L24.266 12.1768ZM98.6227 15.6535C100.571 15.6535 101.421 15.3117 101.421 14.5456C101.421 13.7796 99.9807 13.5675 98.2449 13.4025C95.1629 13.0961 93.8404 12.1061 93.8404 10.0673C93.8404 7.99306 95.4227 6.79096 98.1976 6.79096C98.4338 6.79096 100.607 6.82632 101.35 6.87346H101.374C102.425 6.95596 102.98 7.35665 102.98 8.0402C102.98 8.71196 102.472 9.12444 101.693 9.12444C100.843 9.12444 99.839 9.04194 98.6109 9.04194C96.45 9.04194 96.1548 9.51335 96.1548 10.0201C96.1548 10.739 96.6508 10.9747 98.7999 11.234C102.307 11.6701 103.748 12.6247 103.748 14.5103C103.748 15.406 103.464 16.2427 102.649 16.9027C101.823 17.5627 100.583 17.9044 98.9534 17.9044C97.5128 17.9044 96.0131 17.8927 94.8559 17.6687C94.1946 17.5509 93.805 17.1148 93.805 16.5256C93.805 15.8538 94.2891 15.4531 95.0803 15.4531C95.7297 15.4413 97.0877 15.6535 98.6227 15.6535Z" fill="white"/>
<path d="M105.944 24.1271C109.522 24.1271 112.663 23.2785 115.072 21.4872H0V24.1271H105.944Z" fill="#E1251B"/>
</svg>
